<svg width="334" height="236" viewBox="0 0 334 236" fill="none" xmlns="http://www.w3.org/2000/svg">
<g clip-path="url(#clip0_508_866)">
<path d="M47.7162 51.8248V51.833C47.7162 64.8673 37.0353 75.4335 23.8595 75.4335H23.8485C10.6782 75.4281 0 64.8646 0 51.833C0 38.7987 10.6837 28.2324 23.8595 28.2324C37.0326 28.2324 47.7107 38.7932 47.7162 51.8248Z" fill="#3C92F6"/>
<path d="M187.49 139.508C187.297 140.199 187.094 140.896 186.879 141.603H186.78C187.025 140.912 187.262 140.21 187.49 139.508Z" fill="#3C92F6"/>
<path d="M334 0V118C334 131.034 323.316 141.603 310.14 141.603H286.281V47.1929H238.57V117.995C238.57 119.048 238.559 120.095 238.529 121.137C238.342 128.125 237.544 134.966 236.183 141.603C232.604 159.04 225.139 175.079 214.722 188.802C207.93 197.741 199.887 205.697 190.851 212.41C176.985 222.715 160.767 230.101 143.14 233.641C135.436 235.189 127.453 236 119.286 236C111.117 236 103.132 235.189 95.4269 233.641C80.6282 230.669 66.8307 224.987 54.5764 217.142C148.854 217.137 177.92 170.926 186.876 141.603C187.091 140.896 187.295 140.199 187.487 139.508C187.487 139.503 187.487 139.497 187.493 139.492C189.564 133.062 190.727 126.234 190.837 119.154C190.843 119.061 190.843 118.982 190.843 118.895C190.854 118.307 190.848 117.997 190.848 117.997V47.1984C190.848 21.127 212.21 0 238.565 0H334Z" fill="#FAAF3C"/>
<path d="M186.879 141.603C177.923 170.929 148.856 217.137 54.5792 217.142C52.2328 215.64 49.9415 214.062 47.7189 212.41C38.6829 205.697 30.6399 197.743 23.8484 188.801C13.4316 175.079 5.96618 159.04 2.38753 141.603C0.822387 133.97 0.00268555 126.082 0.00268555 117.994V94.3965H47.7189V117.994C47.7189 126.272 49.1493 134.218 51.7927 141.603C58.9803 161.718 75.0993 177.658 95.4297 184.766C102.89 187.378 110.922 188.801 119.289 188.801C127.651 188.801 135.681 187.378 143.143 184.766C163.482 177.656 179.595 161.715 186.78 141.603H186.879Z" fill="#3C92F6"/>
</g>
<defs>
<clipPath id="clip0_508_866">
<rect width="334" height="236" fill="white"/>
</clipPath>
</defs>
</svg>