<svg width="68" height="48" viewBox="0 0 68 48" fill="none" xmlns="http://www.w3.org/2000/svg">
    <g clip-path="url(#clip0_71_717)">
        <path
            d="M9.71468 10.5405V10.5422C9.71468 13.1933 7.54012 15.3423 4.85762 15.3423H4.85538C2.174 15.3412 0 13.1927 0 10.5422C0 7.89116 2.17512 5.7421 4.85762 5.7421C7.53956 5.7421 9.71356 7.89005 9.71468 10.5405Z"
            fill="#3C92F6" />
        <path
            d="M38.1716 28.3745C38.1324 28.5151 38.091 28.6568 38.0473 28.8007H38.0271C38.077 28.6601 38.1251 28.5173 38.1716 28.3745Z"
            fill="#3C92F6" />
        <path
            d="M68 0V24C68 26.651 65.8249 28.8007 63.1424 28.8007H58.2848V9.59856H48.5712V23.9989C48.5712 24.2131 48.5689 24.4262 48.5628 24.6381C48.5247 26.0594 48.3623 27.4508 48.0851 28.8007C47.3565 32.3472 45.8366 35.6093 43.7158 38.4003C42.3331 40.2184 40.6956 41.8367 38.8559 43.2021C36.0329 45.298 32.731 46.8001 29.1424 47.5202C27.5738 47.8351 25.9486 48 24.2859 48C22.6226 48 20.9969 47.8351 19.4283 47.5202C16.4153 46.9158 13.6063 45.7602 11.1114 44.1646C30.3055 44.1635 36.2233 34.7647 38.0467 28.8007C38.0904 28.6568 38.1318 28.5151 38.171 28.3745C38.171 28.3734 38.171 28.3723 38.1722 28.3712C38.5939 27.0634 38.8307 25.6748 38.8531 24.2347C38.8543 24.2158 38.8543 24.1998 38.8543 24.1821C38.8565 24.0625 38.8554 23.9994 38.8554 23.9994V9.59967C38.8554 4.29702 43.2045 0 48.5701 0H68Z"
            fill="#FAAF3C" />
        <path
            d="M38.0473 28.8007C36.2238 34.7652 30.3061 44.1635 11.1119 44.1646C10.6342 43.8591 10.1677 43.5381 9.71525 43.2021C7.87558 41.8367 6.23807 40.219 4.85538 38.4003C2.73458 35.6093 1.21469 32.3472 0.486098 28.8007C0.167446 27.2482 0.00056076 25.6438 0.00056076 23.9989V19.1993H9.71525V23.9989C9.71525 25.6825 10.0065 27.2986 10.5446 28.8007C12.008 32.8918 15.2897 36.1339 19.4288 37.5796C20.9476 38.1109 22.5828 38.4003 24.2864 38.4003C25.9889 38.4003 27.6236 38.1109 29.1429 37.5796C33.2837 36.1334 36.5643 32.8912 38.0271 28.8007H38.0473Z"
            fill="#3C92F6" />
    </g>
    <defs>
        <clipPath id="clip0_71_717">
            <rect width="68" height="48" fill="white" />
        </clipPath>
    </defs>
</svg>
    