<svg width="48" height="48" viewBox="0 0 48 48" fill="none" xmlns="http://www.w3.org/2000/svg">
<rect width="48" height="48" rx="24" fill="white"/>
<path d="M24.0037 12.1958C27.8515 12.1958 28.3031 12.2129 29.8239 12.2815C31.2304 12.3444 31.9908 12.5788 32.4997 12.7789C33.1743 13.0419 33.6545 13.3507 34.1577 13.8538C34.6608 14.3569 34.9752 14.8372 35.2325 15.5118C35.4269 16.0206 35.667 16.781 35.7299 18.1875C35.7985 19.7083 35.8157 20.16 35.8157 24.0077C35.8157 27.8555 35.7985 28.3071 35.7299 29.8279C35.667 31.2344 35.4326 31.9948 35.2325 32.5036C34.9695 33.1783 34.6608 33.6585 34.1577 34.1617C33.6545 34.6648 33.1743 34.9792 32.4997 35.2365C31.9908 35.4309 31.2304 35.671 29.8239 35.7339C28.3031 35.8025 27.8515 35.8197 24.0037 35.8197C20.156 35.8197 19.7043 35.8025 18.1835 35.7339C16.777 35.671 16.0166 35.4366 15.5078 35.2365C14.8331 34.9735 14.3529 34.6648 13.8498 34.1617C13.3466 33.6585 13.0322 33.1783 12.7749 32.5036C12.5805 31.9948 12.3404 31.2344 12.2775 29.8279C12.2089 28.3071 12.1918 27.8555 12.1918 24.0077C12.1918 20.16 12.2089 19.7083 12.2775 18.1875C12.3404 16.781 12.5748 16.0206 12.7749 15.5118C13.0379 14.8372 13.3466 14.3569 13.8498 13.8538C14.3529 13.3507 14.8331 13.0362 15.5078 12.7789C16.0166 12.5845 16.777 12.3444 18.1835 12.2815C19.7043 12.2072 20.1617 12.1958 24.0037 12.1958ZM24.0037 9.6001C20.0931 9.6001 19.6014 9.61725 18.0634 9.68586C16.5312 9.75447 15.4849 10.0003 14.5702 10.3548C13.6211 10.7207 12.8207 11.2181 12.0202 12.0185C11.2198 12.8189 10.7281 13.6251 10.3565 14.5684C10.002 15.4832 9.75617 16.5295 9.68757 18.0674C9.61896 19.5997 9.60181 20.0914 9.60181 24.002C9.60181 27.9126 9.61896 28.4043 9.68757 29.9423C9.75617 31.4745 10.002 32.5208 10.3565 33.4413C10.7224 34.3904 11.2198 35.1908 12.0202 35.9912C12.8207 36.7916 13.6268 37.2833 14.5702 37.6549C15.4849 38.0094 16.5312 38.2553 18.0691 38.3239C19.6071 38.3925 20.0931 38.4096 24.0094 38.4096C27.9258 38.4096 28.4118 38.3925 29.9497 38.3239C31.482 38.2553 32.5282 38.0094 33.4487 37.6549C34.3978 37.289 35.1982 36.7916 35.9986 35.9912C36.7991 35.1908 37.2908 34.3846 37.6624 33.4413C38.0169 32.5265 38.2627 31.4802 38.3313 29.9423C38.3999 28.4043 38.4171 27.9184 38.4171 24.002C38.4171 20.0856 38.3999 19.5997 38.3313 18.0617C38.2627 16.5295 38.0169 15.4832 37.6624 14.5627C37.2965 13.6136 36.7991 12.8132 35.9986 12.0128C35.1982 11.2124 34.3921 10.7207 33.4487 10.3491C32.534 9.99459 31.4877 9.74875 29.9497 9.68014C28.4061 9.61725 27.9144 9.6001 24.0037 9.6001Z" fill="#3C92F6"/>
<path d="M24.0039 16.6094C19.9218 16.6094 16.6057 19.9197 16.6057 24.0076C16.6057 28.0954 19.916 31.4058 24.0039 31.4058C28.0918 31.4058 31.4021 28.0954 31.4021 24.0076C31.4021 19.9197 28.0918 16.6094 24.0039 16.6094ZM24.0039 28.8044C21.3511 28.8044 19.2014 26.6547 19.2014 24.0019C19.2014 21.349 21.3511 19.1993 24.0039 19.1993C26.6567 19.1993 28.8065 21.349 28.8065 24.0019C28.8065 26.6547 26.6567 28.8044 24.0039 28.8044Z" fill="#3C92F6"/>
<path d="M31.6937 18.0387C32.6473 18.0387 33.4203 17.2657 33.4203 16.3121C33.4203 15.3585 32.6473 14.5854 31.6937 14.5854C30.7401 14.5854 29.967 15.3585 29.967 16.3121C29.967 17.2657 30.7401 18.0387 31.6937 18.0387Z" fill="#3C92F6"/>
</svg>
