<svg width="24" height="24" viewBox="0 0 24 24" fill="none" xmlns="http://www.w3.org/2000/svg">
    <path
        d="M6.34296 17.657L4.92896 19.071M6.34296 6.343L4.92896 4.929M17.657 6.343L19.071 4.929M17.657 17.657L19.071 19.071M4 12H2M12 4V2M20 12H22M12 20V22M14.8279 14.828C15.21 14.459 15.5147 14.0176 15.7243 13.5296C15.934 13.0416 16.0443 12.5167 16.0489 11.9856C16.0535 11.4545 15.9523 10.9278 15.7512 10.4362C15.5501 9.9446 15.2531 9.49799 14.8775 9.12242C14.5019 8.74685 14.0553 8.44984 13.5637 8.24871C13.0722 8.04759 12.5454 7.94638 12.0143 7.951C11.4832 7.95561 10.9583 8.06596 10.4703 8.27559C9.98228 8.48523 9.54091 8.78996 9.17192 9.172C8.44329 9.92641 8.04011 10.9368 8.04922 11.9856C8.05834 13.0344 8.47901 14.0376 9.22065 14.7793C9.96228 15.5209 10.9655 15.9416 12.0143 15.9507C13.0631 15.9598 14.0735 15.5566 14.8279 14.828Z"
        stroke="#fff" stroke-width="2" stroke-linecap="round" stroke-linejoin="round" />
</svg>
    